<?xml version="1.0" encoding="utf-8"?>
<!-- Generator: Adobe Illustrator 26.5.0, SVG Export Plug-In . SVG Version: 6.00 Build 0)  -->
<svg version="1.1" id="Layer_1" xmlns="http://www.w3.org/2000/svg" xmlns:xlink="http://www.w3.org/1999/xlink" x="0px" y="0px"
	 viewBox="0 0 50 50" style="enable-background:new 0 0 50 50;" xml:space="preserve">
<style type="text/css">
	.st0{fill:#2A627E;stroke:#0D647C;stroke-miterlimit:4.0017;}
</style>
<path id="noun-returns-4558080" class="st0" d="M11.9,17.1L11.9,17.1l-4.6-2.6c0.1,12.8,0,0,0.1,12.8c12.1-5.8,0,0,12.1-5.8L15,19
	c3.6-6.9,12.1-9.6,19-6s9.6,12.1,6,19c-0.1,0.2-0.2,0.5-0.4,0.7c-3.2,5.8-9.9,8.5-16.2,6.7c-0.9-0.3-1.9,0.3-2.2,1.2
	s0.3,1.9,1.2,2.2c9.3,2.7,19-2.7,21.7-12c2.3-7.8-1.2-16.2-8.3-20.2C27.5,5.8,16.8,8.7,11.9,17.1z"/>
</svg>
